<svg id="Camada_2" data-name="Camada 2" xmlns="http://www.w3.org/2000/svg" viewBox="0 0 425.2 425.2"><defs><style>.cls-1{fill:#51529f;}.cls-2{fill:#9e9dce;}.cls-3{fill:#8182ba;}.cls-4{fill:#5d58a3;}</style></defs><title>logoprimaria</title><path class="cls-1" d="M128.79,406.67V18.53a5.22,5.22,0,0,1,4.94-5.47h115.1q60,0,93.75,27.27t33.73,81.54q0,27.13-14.14,48.52a82.6,82.6,0,0,1-27.27,25.86c-3.8,2.24-3.37,8.34.68,10a78.34,78.34,0,0,1,37,30.23q17.36,26.31,17.36,61.12,0,56.19-33.23,85.38T265,412.13H133.73A5.22,5.22,0,0,1,128.79,406.67Zm60.26-231.06a5.23,5.23,0,0,0,4.95,5.47h61.52q28,0,44.28-14.67T316,124.89q0-29.6-17.11-44t-50.1-14.39H194A5.23,5.23,0,0,0,189.05,72Zm0,60.54V353.22a5.22,5.22,0,0,0,4.95,5.46H265q31.24,0,48.11-15.72t16.87-45.54q0-31.73-14.14-49.23t-44.14-17.5H194A5.22,5.22,0,0,0,189.05,236.15Z"/><rect class="cls-2" x="96.15" y="13.44" width="14.21" height="398.69" rx="4.78"/><rect class="cls-3" x="65.8" y="13.44" width="14.21" height="398.69" rx="4.78"/><rect class="cls-4" x="35.25" y="13.44" width="14.21" height="398.69" rx="4.78"/></svg>