<svg id="Camada_1" data-name="Camada 1" xmlns="http://www.w3.org/2000/svg" viewBox="0 0 176.22 42.05"><defs><style>.cls-1{fill:#51529f;}.cls-2{fill:#9e9dce;}.cls-3{fill:#8182ba;}.cls-4{fill:#5d58a3;}</style></defs><title>logo</title><path class="cls-1" d="M21.74,45.45V4.55A.56.56,0,0,1,22.26,4H34.39q6.33,0,9.88,2.88t3.56,8.59a9.06,9.06,0,0,1-1.49,5.11,8.75,8.75,0,0,1-2.88,2.73.6.6,0,0,0,.07,1,8.22,8.22,0,0,1,3.9,3.18A11.44,11.44,0,0,1,49.26,34q0,5.92-3.5,9T36.09,46H22.26A.56.56,0,0,1,21.74,45.45ZM28.09,21.1a.56.56,0,0,0,.53.58H35.1a6.69,6.69,0,0,0,4.66-1.55,5.58,5.58,0,0,0,1.72-4.37,5.73,5.73,0,0,0-1.81-4.64,8,8,0,0,0-5.28-1.51H28.62a.55.55,0,0,0-.53.57Zm0,6.38V39.82a.55.55,0,0,0,.53.57h7.47a7.16,7.16,0,0,0,5.07-1.65,6.24,6.24,0,0,0,1.78-4.8,8.08,8.08,0,0,0-1.49-5.19,5.61,5.61,0,0,0-4.65-1.84H28.62A.55.55,0,0,0,28.09,27.48Z" transform="translate(-11.89 -3.97)"/><rect class="cls-2" x="6.42" y="0.04" width="1.5" height="42.01" rx="0.75"/><rect class="cls-3" x="3.22" y="0.04" width="1.5" height="42.01" rx="0.75"/><rect class="cls-4" y="0.04" width="1.5" height="42.01" rx="0.75"/><path class="cls-1" d="M52.4,35.06a11,11,0,0,1,2.48-7.44,8.52,8.52,0,0,1,6.81-2.91,8.51,8.51,0,0,1,6.85,2.91A11,11,0,0,1,71,35.06v.39a11,11,0,0,1-2.5,7.47,8.5,8.5,0,0,1-6.81,2.87,8.55,8.55,0,0,1-6.85-2.89,11,11,0,0,1-2.48-7.45Zm4.56.38a9.1,9.1,0,0,0,1.16,4.84,4.4,4.4,0,0,0,7.17,0,8.83,8.83,0,0,0,1.21-4.84v-.39a8.71,8.71,0,0,0-1.21-4.78,4.33,4.33,0,0,0-7.17,0A9,9,0,0,0,57,35.05Z" transform="translate(-11.89 -3.97)"/><path class="cls-1" d="M78.62,45.4H76.57a1.25,1.25,0,0,1-1.25-1.26V17.37a1.25,1.25,0,0,1,1.25-1.25h2.05a1.25,1.25,0,0,1,1.26,1.25V44.14A1.25,1.25,0,0,1,78.62,45.4Z" transform="translate(-11.89 -3.97)"/><path class="cls-1" d="M93.69,45.79A8.85,8.85,0,0,1,86.81,43a10.42,10.42,0,0,1-2.56-7.26V35a10.78,10.78,0,0,1,2.55-7.35,8.06,8.06,0,0,1,6.37-2.9,7.94,7.94,0,0,1,6.3,2.49,9.78,9.78,0,0,1,2.18,6.67V35.3a1.25,1.25,0,0,1-1.25,1.26H89l0,.09a6.32,6.32,0,0,0,1.41,4A4.51,4.51,0,0,0,94,42.13a9.8,9.8,0,0,0,3.15-.45,9.06,9.06,0,0,0,1.44-.62,1.25,1.25,0,0,1,1.7.56l.4.83a1.26,1.26,0,0,1-.45,1.61,10.83,10.83,0,0,1-2.13,1A12.86,12.86,0,0,1,93.69,45.79Zm-.52-17.42a3.42,3.42,0,0,0-2.78,1.35A6.51,6.51,0,0,0,89,33.12l0,.1h8v-.47a4.88,4.88,0,0,0-1-3.16A3.58,3.58,0,0,0,93.17,28.37Z" transform="translate(-11.89 -3.97)"/><path class="cls-3" d="M111,21.41v2.42a1.25,1.25,0,0,0,1.26,1.26h1.13a1.25,1.25,0,0,1,1.25,1.26v.86a1.25,1.25,0,0,1-1.25,1.26h-1.13A1.25,1.25,0,0,0,111,29.73v10a2.44,2.44,0,0,0,.55,1.8A2,2,0,0,0,113,42a4.4,4.4,0,0,0,.73-.06,6.11,6.11,0,0,0,.68-.18l.34,2.36a1.26,1.26,0,0,1-.93,1.4l-.31.08a8.37,8.37,0,0,1-1.67.17,5.23,5.23,0,0,1-3.94-1.47c-1-1-1.43-2.52-1.43-4.63v-10a1.25,1.25,0,0,0-1.26-1.26h-.58a1.25,1.25,0,0,1-1.26-1.26v-.86a1.25,1.25,0,0,1,1.26-1.26h.58a1.25,1.25,0,0,0,1.26-1.26V21.41a1.26,1.26,0,0,1,1.26-1.26h2A1.26,1.26,0,0,1,111,21.41Z" transform="translate(-11.89 -3.97)"/><path class="cls-3" d="M117.85,35.06a11.09,11.09,0,0,1,2.48-7.44,9.48,9.48,0,0,1,13.67,0,11,11,0,0,1,2.49,7.44v.39A11,11,0,0,1,134,42.92a9.55,9.55,0,0,1-13.67,0,11,11,0,0,1-2.48-7.45Zm4.56.38a9,9,0,0,0,1.17,4.84,4.4,4.4,0,0,0,7.17,0,8.83,8.83,0,0,0,1.2-4.84v-.39a8.71,8.71,0,0,0-1.2-4.78,4,4,0,0,0-3.61-1.9,3.92,3.92,0,0,0-3.56,1.9,8.93,8.93,0,0,0-1.17,4.78Z" transform="translate(-11.89 -3.97)"/><path class="cls-3" d="M139.63,35.06a11.08,11.08,0,0,1,2.47-7.44,9.48,9.48,0,0,1,13.67,0,11,11,0,0,1,2.5,7.44v.39a11,11,0,0,1-2.5,7.47A8.5,8.5,0,0,1,149,45.79a8.58,8.58,0,0,1-6.86-2.89,11,11,0,0,1-2.47-7.45Zm4.56.38a9.1,9.1,0,0,0,1.16,4.84,4.4,4.4,0,0,0,7.17,0,8.83,8.83,0,0,0,1.2-4.84v-.39a8.71,8.71,0,0,0-1.2-4.78,4.33,4.33,0,0,0-7.17,0,9,9,0,0,0-1.16,4.78Z" transform="translate(-11.89 -3.97)"/><path class="cls-3" d="M165.85,45.4h-2a1.25,1.25,0,0,1-1.25-1.26V17.37a1.25,1.25,0,0,1,1.25-1.25h2a1.26,1.26,0,0,1,1.26,1.25V44.14A1.26,1.26,0,0,1,165.85,45.4Z" transform="translate(-11.89 -3.97)"/><path class="cls-3" d="M183.63,39.88a2.09,2.09,0,0,0-.91-1.74,8.85,8.85,0,0,0-3.36-1.22,14.09,14.09,0,0,1-5.5-2.19A4.58,4.58,0,0,1,172,30.87a5.48,5.48,0,0,1,2.16-4.35,8.58,8.58,0,0,1,5.68-1.81,8.93,8.93,0,0,1,5.91,1.83,5.44,5.44,0,0,1,2.09,4.54l0,.11h-3.31a1.28,1.28,0,0,1-1.2-.89,3,3,0,0,0-.82-1.27,3.68,3.68,0,0,0-2.63-.9,3.76,3.76,0,0,0-2.51.74,2.29,2.29,0,0,0-.86,1.81,2,2,0,0,0,.81,1.7,8.87,8.87,0,0,0,3.32,1.12,13.94,13.94,0,0,1,5.67,2.22,4.69,4.69,0,0,1,1.85,3.92,5.33,5.33,0,0,1-2.26,4.45,9.62,9.62,0,0,1-6,1.7,9.11,9.11,0,0,1-6.25-2,5.74,5.74,0,0,1-2.18-4.66l0-.11h3.17a1.26,1.26,0,0,1,1.21.94A2.73,2.73,0,0,0,177,41.57a5.12,5.12,0,0,0,2.93.81,4.69,4.69,0,0,0,2.72-.68A2.11,2.11,0,0,0,183.63,39.88Z" transform="translate(-11.89 -3.97)"/></svg>